<?xml version="1.0" standalone="no"?>
<!DOCTYPE svg PUBLIC "-//W3C//DTD SVG 20010904//EN"
 "http://www.w3.org/TR/2001/REC-SVG-20010904/DTD/svg10.dtd">
<svg version="1.0" xmlns="http://www.w3.org/2000/svg"
 width="224.000000pt" height="224.000000pt" viewBox="0 0 224.000000 224.000000"
 preserveAspectRatio="xMidYMid meet">

<g transform="translate(0.000000,224.000000) scale(0.100000,-0.100000)"
fill="#000000" stroke="none">
<path d="M522 1704 c-9 -17 -20 -18 -116 -10 -44 4 -53 1 -79 -25 -26 -26 -29
-35 -24 -70 5 -38 30 -79 48 -79 16 0 37 31 32 48 -6 24 60 47 86 30 30 -18
72 10 86 57 6 22 10 46 7 53 -5 17 -29 15 -40 -4z"/>
<path d="M1930 1608 c-21 -23 -27 -58 -10 -58 6 0 10 5 10 11 0 8 12 10 34 6
22 -3 36 -1 39 6 2 6 12 -3 22 -21 14 -24 22 -29 32 -21 12 11 46 71 41 74
-62 33 -139 34 -168 3z"/>
<path d="M839 1526 c-2 -2 -53 -6 -114 -10 -140 -9 -170 -13 -227 -38 -38 -16
-50 -18 -68 -8 -18 10 -24 9 -31 -1 -5 -8 -4 -15 1 -17 17 -6 11 -31 -9 -42
-29 -15 -92 -12 -111 5 -16 14 -20 13 -49 -11 -44 -37 -85 -124 -117 -249 -4
-16 -8 -32 -9 -35 -3 -13 -16 -89 -20 -124 -3 -22 -8 -52 -10 -68 -4 -20 -1
-30 10 -34 8 -4 15 -10 15 -16 0 -5 11 -26 25 -46 42 -62 30 -101 -69 -230
-43 -56 -56 -80 -56 -107 0 -19 5 -35 11 -35 15 0 152 104 217 165 44 41 58
62 77 120 13 38 28 71 33 73 5 1 31 -10 56 -25 57 -34 65 -58 82 -245 6 -74 7
-76 35 -80 16 -3 29 -2 30 1 0 3 2 13 3 21 8 42 29 249 28 273 0 11 -12 40
-26 67 l-25 48 41 -10 c55 -12 98 -7 251 28 93 21 127 33 127 44 0 9 3 11 8 5
6 -10 23 -12 37 -5 6 3 22 7 35 9 6 0 8 22 6 49 -3 46 -4 47 -37 45 -49 -2
-49 -2 -49 -19 0 -8 -5 -12 -10 -9 -6 4 -8 11 -5 16 8 12 15 13 -115 -16 -183
-40 -265 -30 -334 43 -27 29 -28 34 -22 99 3 37 6 82 6 100 0 19 9 42 23 57
18 21 33 26 88 29 47 3 78 11 110 30 40 23 150 45 249 51 21 1 25 6 25 31 0
56 -13 73 -56 71 -21 0 -39 -5 -39 -11 0 -5 -4 -4 -8 3 -5 7 -10 11 -13 8z
m-402 -333 c-3 -10 -5 -2 -5 17 0 19 2 27 5 18 2 -10 2 -26 0 -35z m17 -198
c-10 -26 -54 -13 -54 15 0 10 -6 20 -12 23 -10 3 -10 8 1 21 13 16 16 15 42
-14 16 -17 26 -37 23 -45z m-89 -14 c3 -5 1 -12 -5 -16 -5 -3 -10 1 -10 9 0
18 6 21 15 7z"/>
<path d="M330 1484 c-14 -10 -27 -19 -30 -22 -3 -2 4 -10 14 -18 23 -16 66
-19 66 -4 0 6 -4 10 -9 10 -5 0 -11 11 -13 25 -3 25 -4 25 -28 9z"/>
<path d="M1797 938 c-109 -109 -103 -94 -68 -182 l31 -76 -31 -58 c-17 -31
-36 -64 -43 -72 -21 -28 -36 -60 -28 -60 5 0 30 -20 58 -45 l49 -44 36 37 c19
20 40 46 46 56 10 19 11 19 22 -2 15 -28 21 -28 92 5 67 31 67 32 35 136 -13
45 -12 87 4 87 3 0 20 25 35 55 16 30 33 55 37 55 4 0 8 4 8 10 0 5 11 26 25
46 14 20 25 40 25 44 0 7 -235 70 -260 70 -5 0 -38 -28 -73 -62z"/>
<path d="M1950 447 c-9 -7 -15 -19 -14 -27 0 -8 -5 -25 -13 -37 -12 -21 -12
-23 10 -23 30 0 73 70 55 88 -15 15 -19 15 -38 -1z"/>
<path d="M497 432 c-10 -2 -17 -11 -15 -20 5 -27 88 -38 88 -12 0 13 -53 36
-73 32z"/>
<path d="M1645 374 c-16 -6 -34 -10 -39 -7 -5 3 -7 0 -4 -8 2 -8 17 -20 33
-28 35 -17 80 -4 80 23 0 26 -34 36 -70 20z"/>
</g>
</svg>
