<svg width="375" height="812" viewBox="0 0 375 812" fill="none" xmlns="http://www.w3.org/2000/svg">
<g clip-path="url(#clip0)">
<rect width="375" height="812" fill="#58C45C"/>
<path d="M157.999 766.5C87.1989 778.5 33.6666 842 36 863C87.4999 890.167 255.499 928.6 353.499 939C475.999 952 425.499 940 483.499 897C541.499 854 503.499 873.5 513.999 837.5C524.499 801.5 500.999 728 492.999 699C484.999 670 481.499 594.5 483.499 559.5C485.099 531.5 493.999 408.833 496.499 366.5C466.332 374.667 415.999 375.5 363.999 447.5C336.962 484.936 342.999 595.5 318.499 655C293.999 714.5 271.5 747.263 157.999 766.5Z" fill="white" fill-opacity="0.05"/>
<path d="M244 25C320 -0.5 344.833 -76 342.5 -97C291 -124.167 144.166 -136.631 46.1659 -147.031C-76.3341 -160.031 -25.8341 -148.031 -83.8341 -105.031C-141.834 -62.0308 -103.834 -81.5308 -114.334 -45.5308C-124.834 -9.53082 -101.334 63.9692 -93.3341 92.9692C-85.3341 121.969 -81.8341 197.469 -83.8341 232.469C-85.4341 260.469 -94.3341 383.136 -96.8341 425.469C-75.5 422.5 -46 417.5 14 342C46.7862 300.744 48.2398 192.254 81.166 136.969C114.5 81 128.912 63.6152 244 25Z" fill="white" fill-opacity="0.05"/>
</g>
<defs>
<clipPath id="clip0">
<rect width="375" height="812" fill="white"/>
</clipPath>
</defs>
</svg>
