<svg width="375" height="172" viewBox="0 0 375 172" fill="none" xmlns="http://www.w3.org/2000/svg">
<rect width="375" height="172" fill="#58C35C"/>
<g opacity="0.06">
<path d="M345.492 172C335.781 169.319 326.492 168.011 317.09 168.011C307.687 168.011 298.398 169.314 288.687 172L288.273 171.255C298.119 168.537 307.544 167.213 317.09 167.213C326.635 167.213 336.06 168.537 345.906 171.255" fill="#D4D4D4"/>
<path d="M115.031 172C105.32 169.319 96.0308 168.011 86.6286 168.011C77.2263 168.011 67.9369 169.314 58.2262 172L57.8125 171.255C67.6586 168.537 77.0834 167.213 86.6286 167.213C96.1737 167.213 105.599 168.537 115.445 171.255L115.031 172Z" fill="#D4D4D4"/>
<path d="M361.325 171.979C349.411 167.373 334.841 162.66 317.09 162.66C299.338 162.66 284.768 167.367 272.854 171.979L272.312 171.277C284.347 166.623 299.082 161.862 317.09 161.862C335.097 161.862 349.832 166.623 361.867 171.277" fill="#D4D4D4"/>
<path d="M130.865 171.979C118.95 167.373 104.38 162.66 86.6289 162.66C68.8774 162.66 54.3077 167.367 42.3931 171.979L41.8516 171.277C53.8865 166.623 68.6217 161.862 86.6289 161.862C104.636 161.862 119.371 166.623 131.406 171.277L130.865 171.979Z" fill="#D4D4D4"/>
<path d="M374.421 171.973C357.226 164.766 339.437 157.309 317.089 157.309C294.742 157.309 276.96 164.761 259.766 171.973L259.194 171.287C276.524 164.027 294.441 156.516 317.097 156.516C339.752 156.516 357.669 164.027 375 171.287" fill="#D4D4D4"/>
<path d="M143.96 171.973C126.758 164.766 108.976 157.309 86.6364 157.309C64.2891 157.309 46.5075 164.761 29.3126 171.968L28.741 171.282C46.0712 164.022 63.9882 156.511 86.6439 156.511C109.3 156.511 127.217 164.022 144.539 171.282L143.96 171.973Z" fill="#D4D4D4"/>
<path d="M374.421 166.623C357.218 159.415 339.437 151.958 317.09 151.958C294.742 151.958 276.961 159.41 259.766 166.623C255.493 168.415 251.071 170.266 246.64 171.979L246.099 171.277C250.506 169.569 254.922 167.718 259.194 165.931C276.524 158.665 294.441 151.155 317.097 151.155C339.753 151.155 357.67 158.665 375 165.931" fill="#D4D4D4"/>
<path d="M157.086 171.979C152.655 170.266 148.232 168.415 143.96 166.617C126.765 159.41 108.976 151.953 86.6363 151.953C64.289 151.953 46.5075 159.405 29.3051 166.617C25.0252 168.41 20.6023 170.261 16.1795 171.979L15.6379 171.277C20.0532 169.569 24.461 167.718 28.7334 165.931C46.0637 158.665 63.9806 151.155 86.6363 151.155C109.292 151.155 127.209 158.665 144.539 165.926C148.804 167.713 153.219 169.564 157.635 171.271L157.086 171.979Z" fill="#D4D4D4"/>
<path d="M374.421 161.272C357.218 154.064 339.437 146.607 317.089 146.607C294.742 146.607 276.961 154.059 259.766 161.266C250.491 165.154 240.893 169.176 230.679 172L230.265 171.255C240.397 168.458 249.95 164.452 259.194 160.58C276.524 153.314 294.441 145.809 317.097 145.809C339.753 145.809 357.67 153.32 375 160.585" fill="#D4D4D4"/>
<path d="M173.047 172C162.825 169.176 153.234 165.154 143.96 161.266C126.765 154.059 108.976 146.602 86.6287 146.602C64.2814 146.602 46.4999 154.054 29.305 161.261C20.0908 165.123 10.5606 169.117 0.4137 171.936L0 171.202C10.0567 168.404 19.5492 164.431 28.7258 160.58C46.0561 153.32 63.973 145.809 86.6287 145.809C109.284 145.809 127.201 153.32 144.532 160.58C153.768 164.452 163.321 168.458 173.453 171.255L173.047 172Z" fill="#D4D4D4"/>
<path d="M201.863 170.692C179.207 170.692 161.29 163.181 143.96 155.921C126.765 148.714 108.976 141.256 86.6362 141.256C64.2889 141.256 46.5074 148.708 29.3125 155.915C20.0983 159.777 10.5681 163.772 0.421222 166.591L0 165.851C10.0567 163.054 19.5492 159.08 28.7258 155.229C46.0561 147.969 63.973 140.458 86.6287 140.458C109.284 140.458 127.201 147.969 144.532 155.229C161.727 162.437 179.516 169.894 201.855 169.894C224.195 169.894 241.984 162.442 259.179 155.229C276.509 147.969 294.426 140.458 317.082 140.458V141.256C294.735 141.256 276.953 148.708 259.758 155.921C242.436 163.181 224.511 170.692 201.863 170.692Z" fill="#D4D4D4"/>
<path d="M201.863 165.341C179.207 165.341 161.29 157.83 143.96 150.565C126.765 143.357 108.976 135.9 86.6362 135.9C64.2889 135.9 46.5074 143.352 29.3125 150.565C20.0983 154.426 10.5681 158.421 0.421222 161.24L0 160.5C10.0567 157.703 19.5492 153.724 28.7258 149.878C46.0561 142.613 63.973 135.102 86.6287 135.102C109.284 135.102 127.201 142.613 144.532 149.878C161.727 157.086 179.516 164.543 201.855 164.543C224.195 164.543 241.984 157.091 259.179 149.878C276.509 142.613 294.426 135.102 317.082 135.102V135.9C294.735 135.9 276.953 143.352 259.758 150.565C242.436 157.83 224.511 165.341 201.863 165.341Z" fill="#D4D4D4"/>
<path d="M201.863 159.99C179.207 159.99 161.29 152.479 143.96 145.219C126.765 138.012 108.976 130.554 86.6362 130.554C64.2889 130.554 46.5074 138.006 29.3125 145.214C20.0983 149.075 10.5681 153.07 0.421222 155.889L0 155.149C10.0567 152.352 19.5492 148.378 28.7258 144.527C46.0561 137.267 63.973 129.757 86.6287 129.757C109.284 129.757 127.201 137.267 144.532 144.527C161.727 151.735 179.516 159.192 201.855 159.192C224.195 159.192 241.984 151.74 259.179 144.527C276.509 137.267 294.426 129.757 317.082 129.757V130.554C294.735 130.554 276.953 138.006 259.758 145.219C242.436 152.479 224.511 159.99 201.863 159.99Z" fill="#D4D4D4"/>
<path d="M201.863 154.634C179.207 154.634 161.29 147.123 143.96 139.863C126.765 132.656 108.976 125.198 86.6362 125.198C64.2889 125.198 46.5074 132.65 29.3125 139.857C20.0983 143.719 10.5681 147.714 0.421222 150.533L0 149.799C10.0567 147.001 19.5492 143.028 28.7258 139.177C46.0561 131.916 63.973 124.406 86.6287 124.406C109.284 124.406 127.201 131.916 144.532 139.177C161.727 146.384 179.516 153.841 201.855 153.841C224.195 153.841 241.984 146.389 259.179 139.177C276.509 131.916 294.426 124.406 317.082 124.406V125.204C294.735 125.204 276.953 132.656 259.758 139.868C242.436 147.123 224.511 154.634 201.863 154.634Z" fill="#D4D4D4"/>
<path d="M201.863 149.283C179.207 149.283 161.29 141.772 143.96 134.512C126.765 127.304 108.976 119.853 86.6362 119.853C64.2889 119.853 46.5074 127.304 29.3125 134.512C20.0983 138.373 10.5681 142.368 0.421222 145.187L0 144.442C10.0567 141.644 19.5492 137.671 28.7258 133.82C46.0561 126.56 63.973 119.049 86.6287 119.049C109.284 119.049 127.201 126.56 144.532 133.82C161.727 141.027 179.516 148.479 201.855 148.479C224.195 148.479 241.984 141.027 259.179 133.82C276.509 126.555 294.426 119.049 317.082 119.049V119.847C294.735 119.847 276.953 127.299 259.758 134.506C242.436 141.772 224.511 149.283 201.863 149.283Z" fill="#D4D4D4"/>
<path d="M201.863 143.932C179.207 143.932 161.29 136.421 143.96 129.161C126.765 121.954 108.976 114.496 86.6362 114.496C64.2889 114.496 46.5074 121.948 29.3125 129.156C20.0832 133.022 10.5531 137.017 0.4137 139.836L0 139.091C10.0567 136.294 19.5492 132.32 28.7258 128.469C46.0561 121.209 63.973 113.699 86.6287 113.699C109.284 113.699 127.201 121.209 144.532 128.469C161.727 135.677 179.516 143.134 201.855 143.134C224.195 143.134 241.984 135.682 259.179 128.469C276.509 121.209 294.426 113.699 317.082 113.699V114.496C294.735 114.496 276.953 121.948 259.758 129.161C242.436 136.421 224.511 143.932 201.863 143.932Z" fill="#D4D4D4"/>
<path d="M201.863 138.581C179.207 138.581 161.29 131.07 143.96 123.81C126.765 116.603 108.976 109.151 86.6362 109.151C64.2889 109.151 46.5074 116.603 29.3125 123.81C20.0983 127.672 10.5681 131.666 0.421222 134.485L0 133.74C10.0567 130.943 19.5492 126.969 28.7258 123.118C46.0561 115.858 63.973 108.348 86.6287 108.348C109.284 108.348 127.201 115.858 144.532 123.118C161.727 130.326 179.516 137.778 201.855 137.778C224.195 137.778 241.984 130.326 259.179 123.118C276.509 115.853 294.426 108.348 317.082 108.348V109.146C294.735 109.146 276.953 116.597 259.758 123.805C242.436 131.07 224.511 138.581 201.863 138.581Z" fill="#D4D4D4"/>
<path d="M201.863 133.23C179.207 133.23 161.29 125.72 143.96 118.459C126.765 111.252 108.976 103.795 86.6362 103.795C64.2889 103.795 46.5074 111.247 29.3125 118.454C20.0983 122.315 10.5681 126.31 0.421222 129.129L0 128.39C10.0567 125.592 19.5492 121.619 28.7258 117.768C46.0561 110.507 63.973 102.997 86.6287 102.997C109.284 102.997 127.201 110.507 144.532 117.768C161.727 124.975 179.516 132.432 201.855 132.432C224.195 132.432 241.984 124.98 259.179 117.768C276.509 110.507 294.426 102.997 317.082 102.997V103.795C294.735 103.795 276.953 111.247 259.758 118.459C242.436 125.72 224.511 133.23 201.863 133.23Z" fill="#D4D4D4"/>
<path d="M201.863 127.879C179.207 127.879 161.29 120.369 143.96 113.108C126.765 105.901 108.976 98.4437 86.6362 98.4437C64.2889 98.4437 46.5074 105.896 29.3125 113.103C20.0983 116.964 10.5681 120.959 0.421222 123.778L0 123.039C10.0567 120.241 19.5492 116.268 28.7258 112.417C46.0561 105.156 63.973 97.6459 86.6287 97.6459C109.284 97.6459 127.201 105.156 144.532 112.417C161.727 119.624 179.516 127.081 201.855 127.081C224.195 127.081 241.984 119.629 259.179 112.417C276.509 105.156 294.426 97.6459 317.082 97.6459V98.4437C294.735 98.4437 276.953 105.896 259.758 113.108C242.436 120.369 224.511 127.879 201.863 127.879Z" fill="#D4D4D4"/>
<path d="M201.863 122.523C179.207 122.523 161.29 115.012 143.96 107.752C126.765 100.545 108.976 93.0929 86.6362 93.0929C64.2889 93.0929 46.5074 100.545 29.3125 107.752C20.0983 111.614 10.5681 115.608 0.421222 118.427L0 117.688C10.0567 114.89 19.5492 110.911 28.7258 107.066C46.0561 99.8054 63.973 92.295 86.6287 92.295C109.284 92.295 127.201 99.8054 144.532 107.066C161.727 114.273 179.516 121.725 201.855 121.725C224.195 121.725 241.984 114.273 259.179 107.066C276.509 99.8001 294.426 92.295 317.082 92.295V93.0929C294.735 93.0929 276.953 100.545 259.758 107.752C242.436 115.012 224.511 122.523 201.863 122.523Z" fill="#D4D4D4"/>
<path d="M201.863 117.172C179.207 117.172 161.29 109.662 143.96 102.401C126.765 95.1939 108.976 87.7367 86.6362 87.7367C64.2889 87.7367 46.5074 95.1886 29.3125 102.396C20.0983 106.257 10.5681 110.252 0.421222 113.071L0 112.332C10.0567 109.534 19.5492 105.555 28.7258 101.71C46.0561 94.4493 63.973 86.9388 86.6287 86.9388C109.284 86.9388 127.201 94.4493 144.532 101.71C161.727 108.917 179.516 116.374 201.855 116.374C224.195 116.374 241.984 108.922 259.179 101.71C276.509 94.4493 294.426 86.9388 317.082 86.9388V87.7367C294.735 87.7367 276.953 95.1886 259.758 102.401C242.436 109.662 224.511 117.172 201.863 117.172Z" fill="#D4D4D4"/>
<path d="M201.863 111.821C179.207 111.821 161.29 104.311 143.96 97.0502C126.765 89.843 108.976 82.3911 86.6362 82.3911C64.2889 82.3911 46.5074 89.843 29.3125 97.0502C20.0983 100.912 10.5681 104.906 0.421222 107.725L0 106.981C10.0567 104.183 19.5492 100.21 28.7258 96.3587C46.0561 89.0983 63.973 81.5879 86.6287 81.5879C109.284 81.5879 127.201 89.0983 144.532 96.3587C161.727 103.566 179.516 111.018 201.855 111.018C224.195 111.018 241.984 103.566 259.179 96.3587C276.509 89.0983 294.426 81.5879 317.082 81.5879V82.3857C294.735 82.3857 276.953 89.8376 259.758 97.0449C242.436 104.311 224.511 111.821 201.863 111.821Z" fill="#D4D4D4"/>
<path d="M201.863 106.47C179.207 106.47 161.29 98.9596 143.96 91.6992C126.765 84.492 108.976 77.0348 86.6362 77.0348C64.2889 77.0348 46.5074 84.4867 29.3125 91.6939C20.0983 95.5555 10.5681 99.55 0.421222 102.369L0 101.63C10.0567 98.832 19.5492 94.8534 28.7258 91.0078C46.0561 83.7473 63.973 76.2369 86.6287 76.2369C109.284 76.2369 127.201 83.7473 144.532 91.0078C161.727 98.215 179.516 105.672 201.855 105.672C224.195 105.672 241.984 98.2203 259.179 91.0078C276.509 83.742 294.426 76.2369 317.082 76.2369V77.0348C294.735 77.0348 276.953 84.4867 259.758 91.6992C242.436 98.9596 224.511 106.47 201.863 106.47Z" fill="#D4D4D4"/>
<path d="M201.863 101.119C179.207 101.119 161.29 93.6088 143.96 86.3484C126.765 79.1412 108.976 71.684 86.6362 71.684C64.2889 71.684 46.5074 79.1358 29.3125 86.3484C20.0832 90.2047 10.5531 94.1992 0.4137 97.0183L0 96.2789C10.0567 93.4811 19.5492 89.5079 28.7258 85.6569C46.0561 78.3965 63.973 70.8861 86.6287 70.8861C109.284 70.8861 127.201 78.3965 144.532 85.6569C161.727 92.8641 179.516 100.316 201.855 100.316C224.195 100.316 241.984 92.8641 259.179 85.6569C276.509 78.3912 294.426 70.8861 317.082 70.8861V71.684C294.735 71.684 276.953 79.1358 259.758 86.3484C242.436 93.6088 224.511 101.119 201.863 101.119Z" fill="#D4D4D4"/>
<path d="M201.863 95.7629C179.207 95.7629 161.29 88.2525 143.96 80.9921C126.765 73.7849 108.976 66.333 86.6362 66.333C64.2889 66.333 46.5074 73.7849 29.3125 80.9921C20.0983 84.8537 10.5681 88.8483 0.421222 91.6673L0 90.928C10.0567 88.1302 19.5492 84.1569 28.7258 80.306C46.0561 73.0402 63.973 65.5352 86.6287 65.5352C109.284 65.5352 127.201 73.0456 144.532 80.306C161.727 87.5132 179.516 94.9704 201.855 94.9704C224.195 94.9704 241.984 87.5185 259.179 80.306C276.509 73.0402 294.426 65.5352 317.082 65.5352V66.333C294.735 66.333 276.953 73.7849 259.758 80.9921C242.436 88.2579 224.511 95.7629 201.863 95.7629Z" fill="#D4D4D4"/>
<path d="M201.863 90.4122C179.207 90.4122 161.29 82.9018 143.96 75.6414C126.765 68.4341 108.976 60.9822 86.6362 60.9822C64.2889 60.9822 46.5074 68.4341 29.3125 75.6414C20.0983 79.503 10.5681 83.4975 0.421222 86.3166L0 85.5719C10.0567 82.7741 19.5492 78.8008 28.7258 74.9499C46.0561 67.6895 63.973 60.1791 86.6287 60.1791C109.284 60.1791 127.201 67.6895 144.532 74.9499C161.727 82.1571 179.516 89.609 201.855 89.609C224.195 89.609 241.984 82.1571 259.179 74.9499C276.509 67.6895 294.426 60.1791 317.082 60.1791V60.9769C294.735 60.9769 276.953 68.4288 259.758 75.636C242.436 82.9018 224.511 90.4122 201.863 90.4122Z" fill="#D4D4D4"/>
<path d="M201.863 85.0612C179.207 85.0612 161.29 77.5508 143.96 70.2904C126.765 63.0832 108.976 55.6313 86.6362 55.6313C64.2889 55.6313 46.5074 63.0832 29.3125 70.2904C20.0983 74.152 10.5681 78.1466 0.421222 80.9656L0 80.221C10.0567 77.4232 19.5492 73.4446 28.7258 69.5989C46.0561 62.3385 63.973 54.8281 86.6287 54.8281C109.284 54.8281 127.201 62.3385 144.532 69.5989C161.727 76.8062 179.516 84.2581 201.855 84.2581C224.195 84.2581 241.984 76.8062 259.179 69.5989C276.509 62.3332 294.426 54.8281 317.082 54.8281V55.626C294.735 55.626 276.953 63.0779 259.758 70.2851C242.436 77.5508 224.511 85.0612 201.863 85.0612Z" fill="#D4D4D4"/>
<path d="M201.863 79.7104C179.207 79.7104 161.29 72.2 143.96 64.9396C126.765 57.7324 108.976 50.2805 86.6362 50.2805C64.2889 50.2805 46.5074 57.7324 29.3125 64.9396C20.0983 68.8012 10.5681 72.7957 0.421222 75.6148L0 74.8701C10.0567 72.0723 19.5492 68.0991 28.7258 64.2481C46.0561 56.9877 63.973 49.4773 86.6287 49.4773C109.284 49.4773 127.201 56.9877 144.532 64.2481C161.727 71.4553 179.516 78.9072 201.855 78.9072C224.195 78.9072 241.984 71.4553 259.179 64.2481C276.509 56.9824 294.426 49.4773 317.082 49.4773V50.2751C294.735 50.2751 276.953 57.727 259.758 64.9343C242.436 72.2 224.511 79.7104 201.863 79.7104Z" fill="#D4D4D4"/>
<path d="M201.863 74.3595C179.207 74.3595 161.29 66.849 143.96 59.5886C126.765 52.3814 108.976 44.9295 86.6362 44.9295C64.2889 44.9295 46.5074 52.3814 29.3125 59.5886C20.0983 63.4502 10.5681 67.4448 0.421222 70.2638L0 69.5192C10.0567 66.7214 19.5492 62.7481 28.7258 58.8972C46.0561 51.6368 63.973 44.1263 86.6287 44.1263C109.284 44.1263 127.201 51.6368 144.532 58.8972C161.727 66.1044 179.516 73.5616 201.855 73.5616C224.195 73.5616 241.984 66.1097 259.179 58.8972C276.509 51.6314 294.426 44.1263 317.082 44.1263V44.9242C294.735 44.9242 276.953 52.3761 259.758 59.5833C242.436 66.849 224.511 74.3595 201.863 74.3595Z" fill="#D4D4D4"/>
<path d="M201.863 69.0086C179.207 69.0086 161.29 61.4982 143.96 54.2378C126.765 47.0306 108.976 39.5787 86.6362 39.5787C64.2965 39.5787 46.5074 47.0306 29.3125 54.2378C20.0983 58.0994 10.5681 62.0939 0.421222 64.913L0 64.1683C10.0567 61.3706 19.5492 57.3973 28.7258 53.5463C46.0561 46.2859 63.973 38.7755 86.6287 38.7755C109.284 38.7755 127.201 46.2859 144.532 53.5463C161.727 60.7536 179.516 68.2108 201.855 68.2108C224.195 68.2108 241.984 60.7589 259.179 53.5463C276.509 46.2859 294.426 38.7755 317.082 38.7755V39.5734C294.735 39.5734 276.953 47.0253 259.758 54.2325C242.436 61.4982 224.511 69.0086 201.863 69.0086Z" fill="#D4D4D4"/>
<path d="M201.863 63.6523C179.207 63.6523 161.29 56.1419 143.96 48.8815C126.765 41.6743 108.976 34.2224 86.6362 34.2224C64.2889 34.2224 46.5074 41.6743 29.3125 48.8815C20.0983 52.7431 10.5681 56.7377 0.421222 59.5567L0 58.8174C10.0567 56.0196 19.5492 52.0463 28.7258 48.1954C46.0561 40.935 63.973 33.4246 86.6287 33.4246C109.284 33.4246 127.201 40.935 144.532 48.1954C161.727 55.4026 179.516 62.8598 201.855 62.8598C224.195 62.8598 241.984 55.4079 259.179 48.1954C276.509 40.935 294.426 33.4246 317.082 33.4246V34.2224C294.735 34.2224 276.953 41.6743 259.758 48.8815C242.436 56.1419 224.511 63.6523 201.863 63.6523Z" fill="#D4D4D4"/>
<path d="M201.863 58.3015C179.207 58.3015 161.29 50.7911 143.96 43.5306C126.765 36.3234 108.976 28.8715 86.6362 28.8715C64.2889 28.8715 46.5074 36.3234 29.3125 43.5306C20.0832 47.3922 10.5531 51.3868 0.4137 54.2059L0 53.4612C10.0567 50.6634 19.5492 46.6901 28.7258 42.8392C46.0561 35.5788 63.973 28.0684 86.6287 28.0684C109.284 28.0684 127.201 35.5788 144.532 42.8392C161.727 50.0464 179.516 57.4983 201.855 57.4983C224.195 57.4983 241.984 50.0464 259.179 42.8392C276.509 35.5734 294.426 28.0684 317.082 28.0684V28.8662C294.735 28.8662 276.953 36.3181 259.758 43.5253C242.436 50.7911 224.511 58.3015 201.863 58.3015Z" fill="#D4D4D4"/>
<path d="M201.863 52.9505C179.207 52.9505 161.29 45.4401 143.96 38.1797C126.765 30.9725 108.976 23.5206 86.6362 23.5206C64.2889 23.5206 46.5074 30.9725 29.3125 38.1797C20.0832 42.0413 10.5531 46.0358 0.4137 48.8549L0 48.1102C10.0567 45.3125 19.5492 41.3339 28.7258 37.4882C46.0561 30.2278 63.973 22.7174 86.6287 22.7174C109.284 22.7174 127.201 30.2278 144.532 37.4882C161.727 44.6955 179.516 52.1473 201.855 52.1473C224.195 52.1473 241.984 44.6955 259.179 37.4882C276.509 30.2278 294.426 22.7174 317.082 22.7174V23.5153C294.735 23.5153 276.953 30.9672 259.758 38.1744C242.436 45.4401 224.511 52.9505 201.863 52.9505Z" fill="#D4D4D4"/>
<path d="M201.863 47.5997C179.207 47.5997 161.29 40.0893 143.96 32.8289C126.765 25.6216 108.976 18.1697 86.6362 18.1697C64.2889 18.1697 46.5074 25.6216 29.3125 32.8289C20.0832 36.6904 10.5531 40.685 0.4137 43.5041L0 42.7594C10.0567 39.9616 19.5492 35.9883 28.7258 32.1374C46.0561 24.877 63.973 17.3666 86.6287 17.3666C109.284 17.3666 127.201 24.877 144.532 32.1374C161.727 39.3446 179.516 46.7965 201.855 46.7965C224.195 46.7965 241.984 39.3446 259.179 32.1374C276.509 24.8717 294.426 17.3666 317.082 17.3666V18.1644C294.735 18.1644 276.953 25.6163 259.758 32.8235C242.436 40.0893 224.511 47.5997 201.863 47.5997Z" fill="#D4D4D4"/>
<path d="M201.863 42.2487C179.207 42.2487 161.29 34.7383 143.96 27.4779C126.765 20.2707 108.976 12.8135 86.6362 12.8135C64.2889 12.8135 46.5074 20.2654 29.3125 27.4726C20.0832 31.3342 10.5531 35.3287 0.4137 38.1478L0 37.4085C10.0567 34.6107 19.5492 30.6374 28.7258 26.7864C46.0561 19.526 63.973 12.0156 86.6287 12.0156C109.284 12.0156 127.201 19.526 144.532 26.7864C161.727 33.9937 179.516 41.4456 201.855 41.4456C224.195 41.4456 241.984 33.9937 259.179 26.7864C276.509 19.526 294.426 12.0156 317.082 12.0156V12.8135C294.735 12.8135 276.953 20.2654 259.758 27.4779C242.436 34.7383 224.511 42.2487 201.863 42.2487Z" fill="#D4D4D4"/>
<path d="M201.863 36.8979C179.207 36.8979 161.29 29.3875 143.96 22.1271C126.765 14.9199 108.976 7.46264 86.6362 7.46264C64.2889 7.46264 46.5074 14.9145 29.3125 22.1218C20.0832 25.9833 10.5531 29.9779 0.4137 32.797L0 32.0576C10.0567 29.2598 19.5492 25.2866 28.7258 21.4356C46.0561 14.1752 63.973 6.66479 86.6287 6.66479C109.284 6.66479 127.201 14.1752 144.532 21.4356C161.727 28.6428 179.516 36.1001 201.855 36.1001C224.195 36.1001 241.984 28.6482 259.179 21.4356C276.509 14.1752 294.426 6.66479 317.082 6.66479V7.46264C294.735 7.46264 276.953 14.9145 259.758 22.1271C242.436 29.3875 224.511 36.8979 201.863 36.8979Z" fill="#D4D4D4"/>
<path d="M201.863 31.5416C179.207 31.5416 161.29 24.0312 143.96 16.7708C126.765 9.56354 108.976 2.11164 86.6362 2.11164C64.2889 2.11164 46.5074 9.56354 29.3125 16.7708C20.0832 20.6323 10.5531 24.6269 0.4137 27.446L0 26.7066C10.0567 23.9088 19.5492 19.9302 28.7258 16.0846C46.0561 8.81888 63.973 1.30847 86.6287 1.30847C109.284 1.30847 127.201 8.81888 144.532 16.0793C161.727 23.2865 179.516 30.7384 201.855 30.7384C224.195 30.7384 241.984 23.2865 259.179 16.0793C276.509 8.81356 294.426 1.30847 317.082 1.30847V2.10632C294.735 2.10632 276.953 9.55822 259.758 16.7654C242.436 24.0312 224.511 31.5416 201.863 31.5416Z" fill="#D4D4D4"/>
<path d="M201.863 26.1907C179.207 26.1907 161.29 18.6803 143.96 11.4145C134.716 7.54764 125.163 3.54244 115.031 0.744658L115.445 0C125.667 2.82438 135.257 6.84553 144.532 10.7337C161.734 17.9409 179.516 25.3982 201.863 25.3982C224.21 25.3982 241.992 17.9463 259.187 10.739C268.461 6.84553 278.059 2.82438 288.281 0L288.695 0.744658C278.563 3.54244 269.01 7.54764 259.766 11.4199C242.435 18.6803 224.511 26.1907 201.863 26.1907Z" fill="#D4D4D4"/>
<path d="M0.4137 22.0951L0 21.3504C10.0567 18.5526 19.5492 14.5793 28.7258 10.7284C38.0077 6.84553 47.598 2.82438 57.8202 0L58.2339 0.744658C48.0945 3.54244 38.5418 7.54764 29.305 11.4199C20.0832 15.2814 10.5531 19.276 0.4137 22.0951Z" fill="#D4D4D4"/>
<path d="M201.863 20.8407C179.207 20.8407 161.29 13.3303 143.96 6.06453C139.695 4.27735 135.28 2.42635 130.865 0.718952L131.406 0.0168457C135.836 1.72956 140.259 3.58057 144.532 5.37306C161.727 12.5803 179.516 20.0375 201.863 20.0375C224.21 20.0375 241.992 12.5856 259.194 5.37306C263.474 3.58057 267.889 1.72956 272.32 0.0168457L272.861 0.718952C268.454 2.42635 264.038 4.27735 259.766 6.06453C242.436 13.3303 224.511 20.8407 201.863 20.8407Z" fill="#D4D4D4"/>
<path d="M0.4137 16.7447L0 16.0001C10.0567 13.2023 19.5492 9.22901 28.7258 5.38339C33.0057 3.59089 37.4285 1.73988 41.8589 0.0218506L42.4005 0.723956C37.9852 2.43135 33.5699 4.27704 29.2975 6.06954C20.0832 9.93112 10.5531 13.9257 0.4137 16.7447Z" fill="#D4D4D4"/>
<path d="M201.863 15.4889C179.207 15.4889 161.29 7.97849 143.96 0.71276L144.532 0.0266113C161.734 7.23384 179.516 14.6911 201.863 14.6911C224.21 14.6911 241.992 7.23915 259.187 0.0319303L259.766 0.718079C242.428 7.97849 224.511 15.4889 201.863 15.4889Z" fill="#D4D4D4"/>
<path d="M0.4137 11.3933L0 10.6487C10.0567 7.85621 19.5417 3.87761 28.7108 0.0319824L29.2975 0.712812C20.0757 4.57971 10.5531 8.57427 0.4137 11.3933Z" fill="#D4D4D4"/>
<path d="M201.863 10.1379C183.856 10.1379 169.121 5.37746 157.086 0.723346L157.627 0.0212402C169.534 4.62748 184.112 9.3401 201.863 9.3401C219.615 9.3401 234.184 4.6328 246.099 0.0212402L246.64 0.723346C234.598 5.37746 219.87 10.1379 201.863 10.1379Z" fill="#D4D4D4"/>
<path d="M0.4137 6.03762L0 5.29828C4.84405 3.95258 9.80845 2.2771 15.6303 0.0218506L16.1719 0.723957C10.3049 2.99516 5.29536 4.68128 0.4137 6.03762Z" fill="#D4D4D4"/>
<path d="M201.863 4.78709C192.318 4.78709 182.893 3.46266 173.047 0.744658L173.461 0C183.171 2.68077 192.461 3.98924 201.863 3.98924C211.265 3.98924 220.555 2.68609 230.265 0L230.679 0.744658C220.825 3.46266 211.401 4.78709 201.863 4.78709Z" fill="#D4D4D4"/>
</g>
</svg>
