<svg width="610" height="712" viewBox="0 0 610 712" fill="none" xmlns="http://www.w3.org/2000/svg">
<g filter="url(#filter0_i)">
<path d="M610 309.228C610 473.78 436.227 655.422 318.158 706.74C313.825 708.623 309.705 703.762 311.767 699.511C328.277 665.475 336.951 618.456 305 618.456C136.553 618.456 0 480.01 0 309.228C0 138.446 136.553 0 305 0C473.447 0 610 138.446 610 309.228Z" fill="url(#paint0_linear)"/>
<path d="M610 309.228C610 473.78 436.227 655.422 318.158 706.74C313.825 708.623 309.705 703.762 311.767 699.511C328.277 665.475 336.951 618.456 305 618.456C136.553 618.456 0 480.01 0 309.228C0 138.446 136.553 0 305 0C473.447 0 610 138.446 610 309.228Z" fill="url(#paint1_radial)" fill-opacity="0.8"/>
<path d="M610 309.228C610 473.78 436.227 655.422 318.158 706.74C313.825 708.623 309.705 703.762 311.767 699.511C328.277 665.475 336.951 618.456 305 618.456C136.553 618.456 0 480.01 0 309.228C0 138.446 136.553 0 305 0C473.447 0 610 138.446 610 309.228Z" fill="url(#paint2_radial)" fill-opacity="0.8"/>
<path d="M610 309.228C610 473.78 436.227 655.422 318.158 706.74C313.825 708.623 309.705 703.762 311.767 699.511C328.277 665.475 336.951 618.456 305 618.456C136.553 618.456 0 480.01 0 309.228C0 138.446 136.553 0 305 0C473.447 0 610 138.446 610 309.228Z" fill="url(#paint3_radial)" fill-opacity="0.8"/>
<path d="M610 309.228C610 473.78 436.227 655.422 318.158 706.74C313.825 708.623 309.705 703.762 311.767 699.511C328.277 665.475 336.951 618.456 305 618.456C136.553 618.456 0 480.01 0 309.228C0 138.446 136.553 0 305 0C473.447 0 610 138.446 610 309.228Z" fill="url(#paint4_linear)"/>
<path d="M610 309.228C610 473.78 436.227 655.422 318.158 706.74C313.825 708.623 309.705 703.762 311.767 699.511C328.277 665.475 336.951 618.456 305 618.456C136.553 618.456 0 480.01 0 309.228C0 138.446 136.553 0 305 0C473.447 0 610 138.446 610 309.228Z" fill="url(#paint5_radial)" fill-opacity="0.8"/>
<path d="M610 309.228C610 473.78 436.227 655.422 318.158 706.74C313.825 708.623 309.705 703.762 311.767 699.511C328.277 665.475 336.951 618.456 305 618.456C136.553 618.456 0 480.01 0 309.228C0 138.446 136.553 0 305 0C473.447 0 610 138.446 610 309.228Z" fill="url(#paint6_radial)" fill-opacity="0.8"/>
<path d="M610 309.228C610 473.78 436.227 655.422 318.158 706.74C313.825 708.623 309.705 703.762 311.767 699.511C328.277 665.475 336.951 618.456 305 618.456C136.553 618.456 0 480.01 0 309.228C0 138.446 136.553 0 305 0C473.447 0 610 138.446 610 309.228Z" fill="url(#paint7_radial)" fill-opacity="0.8"/>
</g>
<path d="M200.399 378.306C219.397 378.306 234.797 362.275 234.797 342.5C234.797 322.725 219.397 306.694 200.399 306.694C181.401 306.694 166 322.725 166 342.5C166 362.275 181.401 378.306 200.399 378.306Z" fill="white" stroke="#58C35C" stroke-miterlimit="10"/>
<path d="M200.761 368.883C219.759 368.883 235.159 352.852 235.159 333.077C235.159 313.302 219.759 297.272 200.761 297.272C181.763 297.272 166.362 313.302 166.362 333.077C166.362 352.852 181.763 368.883 200.761 368.883Z" fill="white" stroke="#58C35C" stroke-miterlimit="10"/>
<path d="M202.028 359.461C221.026 359.461 236.427 343.43 236.427 323.655C236.427 303.88 221.026 287.849 202.028 287.849C183.03 287.849 167.629 303.88 167.629 323.655C167.629 343.43 183.03 359.461 202.028 359.461Z" fill="white" stroke="#58C35C" stroke-miterlimit="10"/>
<path d="M204.02 350.603C223.017 350.603 238.418 334.573 238.418 314.798C238.418 295.023 223.017 278.992 204.02 278.992C185.022 278.992 169.621 295.023 169.621 314.798C169.621 334.573 185.022 350.603 204.02 350.603Z" fill="white" stroke="#58C35C" stroke-miterlimit="10"/>
<path d="M206.554 341.746C225.552 341.746 240.953 325.715 240.953 305.94C240.953 286.165 225.552 270.135 206.554 270.135C187.556 270.135 172.156 286.165 172.156 305.94C172.156 325.715 187.556 341.746 206.554 341.746Z" fill="white" stroke="#58C35C" stroke-miterlimit="10"/>
<path d="M209.994 333.454C228.992 333.454 244.393 317.424 244.393 297.648C244.393 277.873 228.992 261.843 209.994 261.843C190.996 261.843 175.595 277.873 175.595 297.648C175.595 317.424 190.996 333.454 209.994 333.454Z" fill="white" stroke="#58C35C" stroke-miterlimit="10"/>
<path d="M213.977 325.351C232.975 325.351 248.376 309.32 248.376 289.545C248.376 269.77 232.975 253.739 213.977 253.739C194.979 253.739 179.578 269.77 179.578 289.545C179.578 309.32 194.979 325.351 213.977 325.351Z" fill="white" stroke="#58C35C" stroke-miterlimit="10"/>
<path d="M218.685 317.624C237.682 317.624 253.083 301.594 253.083 281.819C253.083 262.043 237.682 246.013 218.685 246.013C199.687 246.013 184.286 262.043 184.286 281.819C184.286 301.594 199.687 317.624 218.685 317.624Z" fill="white" stroke="#58C35C" stroke-miterlimit="10"/>
<path d="M223.935 310.275C242.932 310.275 258.333 294.244 258.333 274.469C258.333 254.694 242.932 238.663 223.935 238.663C204.937 238.663 189.536 254.694 189.536 274.469C189.536 294.244 204.937 310.275 223.935 310.275Z" fill="white" stroke="#58C35C" stroke-miterlimit="10"/>
<path d="M229.909 303.49C248.907 303.49 264.308 287.46 264.308 267.685C264.308 247.91 248.907 231.879 229.909 231.879C210.911 231.879 195.51 247.91 195.51 267.685C195.51 287.46 210.911 303.49 229.909 303.49Z" fill="white" stroke="#58C35C" stroke-miterlimit="10"/>
<path d="M236.246 297.083C255.244 297.083 270.645 281.052 270.645 261.277C270.645 241.502 255.244 225.471 236.246 225.471C217.248 225.471 201.847 241.502 201.847 261.277C201.847 281.052 217.248 297.083 236.246 297.083Z" fill="white" stroke="#58C35C" stroke-miterlimit="10"/>
<path d="M243.126 291.053C262.124 291.053 277.524 275.022 277.524 255.247C277.524 235.472 262.124 219.441 243.126 219.441C224.128 219.441 208.727 235.472 208.727 255.247C208.727 275.022 224.128 291.053 243.126 291.053Z" fill="white" stroke="#58C35C" stroke-miterlimit="10"/>
<path d="M250.367 285.776C269.365 285.776 284.766 269.745 284.766 249.97C284.766 230.195 269.365 214.164 250.367 214.164C231.37 214.164 215.969 230.195 215.969 249.97C215.969 269.745 231.37 285.776 250.367 285.776Z" fill="white" stroke="#58C35C" stroke-miterlimit="10"/>
<path d="M258.152 280.876C277.15 280.876 292.551 264.845 292.551 245.07C292.551 225.295 277.15 209.265 258.152 209.265C239.154 209.265 223.754 225.295 223.754 245.07C223.754 264.845 239.154 280.876 258.152 280.876Z" fill="white" stroke="#58C35C" stroke-miterlimit="10"/>
<path d="M266.3 276.73C285.297 276.73 300.698 260.7 300.698 240.925C300.698 221.15 285.297 205.119 266.3 205.119C247.302 205.119 231.901 221.15 231.901 240.925C231.901 260.7 247.302 276.73 266.3 276.73Z" fill="white" stroke="#58C35C" stroke-miterlimit="10"/>
<path d="M274.809 273.15C293.806 273.15 309.207 257.119 309.207 237.344C309.207 217.569 293.806 201.538 274.809 201.538C255.811 201.538 240.41 217.569 240.41 237.344C240.41 257.119 255.811 273.15 274.809 273.15Z" fill="white" stroke="#58C35C" stroke-miterlimit="10"/>
<path d="M283.68 270.135C302.678 270.135 318.078 254.104 318.078 234.329C318.078 214.554 302.678 198.523 283.68 198.523C264.682 198.523 249.281 214.554 249.281 234.329C249.281 254.104 264.682 270.135 283.68 270.135Z" fill="white" stroke="#58C35C" stroke-miterlimit="10"/>
<path d="M292.913 267.873C311.911 267.873 327.312 251.842 327.312 232.067C327.312 212.292 311.911 196.261 292.913 196.261C273.915 196.261 258.515 212.292 258.515 232.067C258.515 251.842 273.915 267.873 292.913 267.873Z" fill="white" stroke="#58C35C" stroke-miterlimit="10"/>
<path d="M302.328 266.366C321.326 266.366 336.726 250.335 336.726 230.56C336.726 210.785 321.326 194.754 302.328 194.754C283.33 194.754 267.929 210.785 267.929 230.56C267.929 250.335 283.33 266.366 302.328 266.366Z" fill="white" stroke="#58C35C" stroke-miterlimit="10"/>
<path d="M311.923 265.612C330.921 265.612 346.322 249.581 346.322 229.806C346.322 210.031 330.921 194 311.923 194C292.925 194 277.524 210.031 277.524 229.806C277.524 249.581 292.925 265.612 311.923 265.612Z" fill="white" stroke="#58C35C" stroke-miterlimit="10"/>
<path d="M321.518 265.612C340.516 265.612 355.917 249.581 355.917 229.806C355.917 210.031 340.516 194 321.518 194C302.52 194 287.12 210.031 287.12 229.806C287.12 249.581 302.52 265.612 321.518 265.612Z" fill="white" stroke="#58C35C" stroke-miterlimit="10"/>
<path d="M330.752 266.366C349.75 266.366 365.15 250.335 365.15 230.56C365.15 210.785 349.75 194.754 330.752 194.754C311.754 194.754 296.353 210.785 296.353 230.56C296.353 250.335 311.754 266.366 330.752 266.366Z" fill="white" stroke="#58C35C" stroke-miterlimit="10"/>
<path d="M339.985 267.685C358.983 267.685 374.384 251.654 374.384 231.879C374.384 212.104 358.983 196.073 339.985 196.073C320.987 196.073 305.586 212.104 305.586 231.879C305.586 251.654 320.987 267.685 339.985 267.685Z" fill="white" stroke="#58C35C" stroke-miterlimit="10"/>
<path d="M348.856 269.758C367.854 269.758 383.255 253.727 383.255 233.952C383.255 214.177 367.854 198.146 348.856 198.146C329.858 198.146 314.458 214.177 314.458 233.952C314.458 253.727 329.858 269.758 348.856 269.758Z" fill="white" stroke="#58C35C" stroke-miterlimit="10"/>
<path d="M357.547 272.584C376.545 272.584 391.945 256.554 391.945 236.779C391.945 217.004 376.545 200.973 357.547 200.973C338.549 200.973 323.148 217.004 323.148 236.779C323.148 256.554 338.549 272.584 357.547 272.584Z" fill="white" stroke="#58C35C" stroke-miterlimit="10"/>
<path d="M365.875 275.977C384.872 275.977 400.273 259.946 400.273 240.171C400.273 220.396 384.872 204.365 365.875 204.365C346.877 204.365 331.476 220.396 331.476 240.171C331.476 259.946 346.877 275.977 365.875 275.977Z" fill="white" stroke="#58C35C" stroke-miterlimit="10"/>
<path d="M374.022 279.934C393.02 279.934 408.42 263.903 408.42 244.128C408.42 224.353 393.02 208.322 374.022 208.322C355.024 208.322 339.623 224.353 339.623 244.128C339.623 263.903 355.024 279.934 374.022 279.934Z" fill="white" stroke="#58C35C" stroke-miterlimit="10"/>
<path d="M381.806 284.645C400.804 284.645 416.205 268.614 416.205 248.839C416.205 229.064 400.804 213.034 381.806 213.034C362.809 213.034 347.408 229.064 347.408 248.839C347.408 268.614 362.809 284.645 381.806 284.645Z" fill="white" stroke="#58C35C" stroke-miterlimit="10"/>
<path d="M389.23 289.733C408.227 289.733 423.628 273.703 423.628 253.928C423.628 234.153 408.227 218.122 389.23 218.122C370.232 218.122 354.831 234.153 354.831 253.928C354.831 273.703 370.232 289.733 389.23 289.733Z" fill="white" stroke="#58C35C" stroke-miterlimit="10"/>
<path d="M396.109 295.576C415.107 295.576 430.508 279.545 430.508 259.77C430.508 239.995 415.107 223.964 396.109 223.964C377.112 223.964 361.711 239.995 361.711 259.77C361.711 279.545 377.112 295.576 396.109 295.576Z" fill="white" stroke="#58C35C" stroke-miterlimit="10"/>
<path d="M402.627 301.983C421.625 301.983 437.025 285.952 437.025 266.177C437.025 246.402 421.625 230.371 402.627 230.371C383.629 230.371 368.228 246.402 368.228 266.177C368.228 285.952 383.629 301.983 402.627 301.983Z" fill="white" stroke="#58C35C" stroke-miterlimit="10"/>
<path d="M408.601 308.956C427.599 308.956 443 292.925 443 273.15C443 253.375 427.599 237.344 408.601 237.344C389.603 237.344 374.203 253.375 374.203 273.15C374.203 292.925 389.603 308.956 408.601 308.956Z" fill="white" stroke="#58C35C" stroke-miterlimit="10"/>
<path d="M406.972 317.624C425.97 317.624 441.371 301.594 441.371 281.819C441.371 262.043 425.97 246.013 406.972 246.013C387.974 246.013 372.573 262.043 372.573 281.819C372.573 301.594 387.974 317.624 406.972 317.624Z" fill="white" stroke="#58C35C" stroke-miterlimit="10"/>
<path d="M398.644 317.436C417.642 317.436 433.043 301.405 433.043 281.63C433.043 261.855 417.642 245.824 398.644 245.824C379.646 245.824 364.245 261.855 364.245 281.63C364.245 301.405 379.646 317.436 398.644 317.436Z" fill="white" stroke="#58C35C" stroke-miterlimit="10"/>
<path d="M392.488 310.652C411.486 310.652 426.887 294.621 426.887 274.846C426.887 255.071 411.486 239.04 392.488 239.04C373.49 239.04 358.09 255.071 358.09 274.846C358.09 294.621 373.49 310.652 392.488 310.652Z" fill="white" stroke="#58C35C" stroke-miterlimit="10"/>
<path d="M385.79 304.433C404.787 304.433 420.188 288.402 420.188 268.627C420.188 248.852 404.787 232.821 385.79 232.821C366.792 232.821 351.391 248.852 351.391 268.627C351.391 288.402 366.792 304.433 385.79 304.433Z" fill="white" stroke="#58C35C" stroke-miterlimit="10"/>
<path d="M378.729 298.779C397.727 298.779 413.127 282.748 413.127 262.973C413.127 243.198 397.727 227.167 378.729 227.167C359.731 227.167 344.33 243.198 344.33 262.973C344.33 282.748 359.731 298.779 378.729 298.779Z" fill="white" stroke="#58C35C" stroke-miterlimit="10"/>
<path d="M371.125 293.879C390.123 293.879 405.524 277.849 405.524 258.074C405.524 238.299 390.123 222.268 371.125 222.268C352.127 222.268 336.726 238.299 336.726 258.074C336.726 277.849 352.127 293.879 371.125 293.879Z" fill="white" stroke="#58C35C" stroke-miterlimit="10"/>
<path d="M363.159 289.545C382.157 289.545 397.558 273.514 397.558 253.739C397.558 233.964 382.157 217.933 363.159 217.933C344.161 217.933 328.76 233.964 328.76 253.739C328.76 273.514 344.161 289.545 363.159 289.545Z" fill="white" stroke="#58C35C" stroke-miterlimit="10"/>
<path d="M354.831 285.964C373.829 285.964 389.23 269.934 389.23 250.159C389.23 230.384 373.829 214.353 354.831 214.353C335.833 214.353 320.432 230.384 320.432 250.159C320.432 269.934 335.833 285.964 354.831 285.964Z" fill="white" stroke="#58C35C" stroke-miterlimit="10"/>
<path d="M346.14 283.138C365.138 283.138 380.539 267.107 380.539 247.332C380.539 227.557 365.138 211.526 346.14 211.526C327.143 211.526 311.742 227.557 311.742 247.332C311.742 267.107 327.143 283.138 346.14 283.138Z" fill="white" stroke="#58C35C" stroke-miterlimit="10"/>
<path d="M337.269 281.065C356.267 281.065 371.668 265.034 371.668 245.259C371.668 225.484 356.267 209.453 337.269 209.453C318.271 209.453 302.871 225.484 302.871 245.259C302.871 265.034 318.271 281.065 337.269 281.065Z" fill="white" stroke="#58C35C" stroke-miterlimit="10"/>
<path d="M328.217 279.746C347.215 279.746 362.616 263.715 362.616 243.94C362.616 224.165 347.215 208.134 328.217 208.134C309.219 208.134 293.819 224.165 293.819 243.94C293.819 263.715 309.219 279.746 328.217 279.746Z" fill="white" stroke="#58C35C" stroke-miterlimit="10"/>
<path d="M318.803 279.18C337.801 279.18 353.201 263.149 353.201 243.374C353.201 223.599 337.801 207.569 318.803 207.569C299.805 207.569 284.404 223.599 284.404 243.374C284.404 263.149 299.805 279.18 318.803 279.18Z" fill="white" stroke="#58C35C" stroke-miterlimit="10"/>
<path d="M309.026 279.369C328.024 279.369 343.425 263.338 343.425 243.563C343.425 223.788 328.024 207.757 309.026 207.757C290.028 207.757 274.627 223.788 274.627 243.563C274.627 263.338 290.028 279.369 309.026 279.369Z" fill="white" stroke="#58C35C" stroke-miterlimit="10"/>
<path d="M299.431 280.499C318.429 280.499 333.829 264.469 333.829 244.694C333.829 224.919 318.429 208.888 299.431 208.888C280.433 208.888 265.032 224.919 265.032 244.694C265.032 264.469 280.433 280.499 299.431 280.499Z" fill="white" stroke="#58C35C" stroke-miterlimit="10"/>
<path d="M290.198 282.384C309.195 282.384 324.596 266.353 324.596 246.578C324.596 226.803 309.195 210.772 290.198 210.772C271.2 210.772 255.799 226.803 255.799 246.578C255.799 266.353 271.2 282.384 290.198 282.384Z" fill="white" stroke="#58C35C" stroke-miterlimit="10"/>
<path d="M281.145 285.211C300.143 285.211 315.544 269.18 315.544 249.405C315.544 229.63 300.143 213.599 281.145 213.599C262.147 213.599 246.747 229.63 246.747 249.405C246.747 269.18 262.147 285.211 281.145 285.211Z" fill="white" stroke="#58C35C" stroke-miterlimit="10"/>
<path d="M272.636 288.603C291.634 288.603 307.035 272.572 307.035 252.797C307.035 233.022 291.634 216.991 272.636 216.991C253.638 216.991 238.237 233.022 238.237 252.797C238.237 272.572 253.638 288.603 272.636 288.603Z" fill="white" stroke="#58C35C" stroke-miterlimit="10"/>
<path d="M264.308 292.937C283.306 292.937 298.707 276.906 298.707 257.131C298.707 237.356 283.306 221.326 264.308 221.326C245.31 221.326 229.909 237.356 229.909 257.131C229.909 276.906 245.31 292.937 264.308 292.937Z" fill="white" stroke="#58C35C" stroke-miterlimit="10"/>
<path d="M256.704 297.648C275.702 297.648 291.103 281.618 291.103 261.843C291.103 242.068 275.702 226.037 256.704 226.037C237.706 226.037 222.305 242.068 222.305 261.843C222.305 281.618 237.706 297.648 256.704 297.648Z" fill="white" stroke="#58C35C" stroke-miterlimit="10"/>
<path d="M249.462 303.302C268.46 303.302 283.861 287.271 283.861 267.496C283.861 247.721 268.46 231.69 249.462 231.69C230.465 231.69 215.064 247.721 215.064 267.496C215.064 287.271 230.465 303.302 249.462 303.302Z" fill="white" stroke="#58C35C" stroke-miterlimit="10"/>
<path d="M242.763 309.333C261.761 309.333 277.162 293.302 277.162 273.527C277.162 253.752 261.761 237.721 242.763 237.721C223.766 237.721 208.365 253.752 208.365 273.527C208.365 293.302 223.766 309.333 242.763 309.333Z" fill="white" stroke="#58C35C" stroke-miterlimit="10"/>
<path d="M236.608 315.928C255.606 315.928 271.007 299.898 271.007 280.122C271.007 260.347 255.606 244.317 236.608 244.317C217.61 244.317 202.209 260.347 202.209 280.122C202.209 299.898 217.61 315.928 236.608 315.928Z" fill="white" stroke="#58C35C" stroke-miterlimit="10"/>
<path d="M230.995 323.089C249.993 323.089 265.394 307.059 265.394 287.284C265.394 267.509 249.993 251.478 230.995 251.478C211.997 251.478 196.597 267.509 196.597 287.284C196.597 307.059 211.997 323.089 230.995 323.089Z" fill="white" stroke="#58C35C" stroke-miterlimit="10"/>
<path d="M226.288 330.628C245.286 330.628 260.687 314.597 260.687 294.822C260.687 275.047 245.286 259.016 226.288 259.016C207.29 259.016 191.89 275.047 191.89 294.822C191.89 314.597 207.29 330.628 226.288 330.628Z" fill="white" stroke="#58C35C" stroke-miterlimit="10"/>
<path d="M222.124 338.543C241.122 338.543 256.523 322.512 256.523 302.737C256.523 282.962 241.122 266.931 222.124 266.931C203.126 266.931 187.725 282.962 187.725 302.737C187.725 322.512 203.126 338.543 222.124 338.543Z" fill="white" stroke="#58C35C" stroke-miterlimit="10"/>
<path d="M218.685 347.023C237.682 347.023 253.083 330.992 253.083 311.217C253.083 291.442 237.682 275.411 218.685 275.411C199.687 275.411 184.286 291.442 184.286 311.217C184.286 330.992 199.687 347.023 218.685 347.023Z" fill="white" stroke="#58C35C" stroke-miterlimit="10"/>
<path d="M216.149 355.692C235.147 355.692 250.548 339.661 250.548 319.886C250.548 300.111 235.147 284.08 216.149 284.08C197.152 284.08 181.751 300.111 181.751 319.886C181.751 339.661 197.152 355.692 216.149 355.692Z" fill="white" stroke="#58C35C" stroke-miterlimit="10"/>
<path d="M214.52 364.737C233.518 364.737 248.919 348.706 248.919 328.931C248.919 309.156 233.518 293.126 214.52 293.126C195.522 293.126 180.122 309.156 180.122 328.931C180.122 348.706 195.522 364.737 214.52 364.737Z" fill="white" stroke="#58C35C" stroke-miterlimit="10"/>
<path d="M213.615 374.16C232.613 374.16 248.014 358.129 248.014 338.354C248.014 318.579 232.613 302.548 213.615 302.548C194.617 302.548 179.216 318.579 179.216 338.354C179.216 358.129 194.617 374.16 213.615 374.16Z" fill="white" stroke="#58C35C" stroke-miterlimit="10"/>
<path d="M213.615 383.582C232.613 383.582 248.014 367.552 248.014 347.777C248.014 328.002 232.613 311.971 213.615 311.971C194.617 311.971 179.216 328.002 179.216 347.777C179.216 367.552 194.617 383.582 213.615 383.582Z" fill="white" stroke="#58C35C" stroke-miterlimit="10"/>
<path d="M214.52 392.817C233.518 392.817 248.919 376.786 248.919 357.011C248.919 337.236 233.518 321.205 214.52 321.205C195.522 321.205 180.122 337.236 180.122 357.011C180.122 376.786 195.522 392.817 214.52 392.817Z" fill="white" stroke="#58C35C" stroke-miterlimit="10"/>
<path d="M216.512 401.862C235.51 401.862 250.91 385.832 250.91 366.056C250.91 346.281 235.51 330.251 216.512 330.251C197.514 330.251 182.113 346.281 182.113 366.056C182.113 385.832 197.514 401.862 216.512 401.862Z" fill="white" stroke="#58C35C" stroke-miterlimit="10"/>
<path d="M219.047 410.531C238.045 410.531 253.445 394.5 253.445 374.725C253.445 354.95 238.045 338.919 219.047 338.919C200.049 338.919 184.648 354.95 184.648 374.725C184.648 394.5 200.049 410.531 219.047 410.531Z" fill="white" stroke="#58C35C" stroke-miterlimit="10"/>
<path d="M222.486 418.823C241.484 418.823 256.885 402.792 256.885 383.017C256.885 363.242 241.484 347.211 222.486 347.211C203.488 347.211 188.087 363.242 188.087 383.017C188.087 402.792 203.488 418.823 222.486 418.823Z" fill="white" stroke="#58C35C" stroke-miterlimit="10"/>
<path d="M226.832 426.926C245.829 426.926 261.23 410.896 261.23 391.121C261.23 371.346 245.829 355.315 226.832 355.315C207.834 355.315 192.433 371.346 192.433 391.121C192.433 410.896 207.834 426.926 226.832 426.926Z" fill="white" stroke="#58C35C" stroke-miterlimit="10"/>
<path d="M231.72 434.464C250.718 434.464 266.118 418.434 266.118 398.659C266.118 378.884 250.718 362.853 231.72 362.853C212.722 362.853 197.321 378.884 197.321 398.659C197.321 418.434 212.722 434.464 231.72 434.464Z" fill="white" stroke="#58C35C" stroke-miterlimit="10"/>
<path d="M237.151 441.437C256.149 441.437 271.55 425.406 271.55 405.631C271.55 385.856 256.149 369.826 237.151 369.826C218.153 369.826 202.752 385.856 202.752 405.631C202.752 425.406 218.153 441.437 237.151 441.437Z" fill="white" stroke="#58C35C" stroke-miterlimit="10"/>
<path d="M243.488 448.033C262.486 448.033 277.886 432.002 277.886 412.227C277.886 392.452 262.486 376.421 243.488 376.421C224.49 376.421 209.089 392.452 209.089 412.227C209.089 432.002 224.49 448.033 243.488 448.033Z" fill="white" stroke="#58C35C" stroke-miterlimit="10"/>
<path d="M250.186 454.064C269.184 454.064 284.585 438.033 284.585 418.258C284.585 398.483 269.184 382.452 250.186 382.452C231.188 382.452 215.788 398.483 215.788 418.258C215.788 438.033 231.188 454.064 250.186 454.064Z" fill="white" stroke="#58C35C" stroke-miterlimit="10"/>
<path d="M257.428 459.34C276.426 459.34 291.827 443.309 291.827 423.534C291.827 403.759 276.426 387.728 257.428 387.728C238.43 387.728 223.029 403.759 223.029 423.534C223.029 443.309 238.43 459.34 257.428 459.34Z" fill="white" stroke="#58C35C" stroke-miterlimit="10"/>
<path d="M265.213 464.24C284.211 464.24 299.612 448.209 299.612 428.434C299.612 408.659 284.211 392.628 265.213 392.628C246.215 392.628 230.814 408.659 230.814 428.434C230.814 448.209 246.215 464.24 265.213 464.24Z" fill="white" stroke="#58C35C" stroke-miterlimit="10"/>
<path d="M273.541 468.386C292.539 468.386 307.94 452.355 307.94 432.58C307.94 412.805 292.539 396.774 273.541 396.774C254.543 396.774 239.143 412.805 239.143 432.58C239.143 452.355 254.543 468.386 273.541 468.386Z" fill="white" stroke="#58C35C" stroke-miterlimit="10"/>
<path d="M282.231 471.778C301.229 471.778 316.63 455.747 316.63 435.972C316.63 416.197 301.229 400.166 282.231 400.166C263.233 400.166 247.833 416.197 247.833 435.972C247.833 455.747 263.233 471.778 282.231 471.778Z" fill="white" stroke="#58C35C" stroke-miterlimit="10"/>
<path d="M291.284 474.416C310.282 474.416 325.682 458.385 325.682 438.61C325.682 418.835 310.282 402.805 291.284 402.805C272.286 402.805 256.885 418.835 256.885 438.61C256.885 458.385 272.286 474.416 291.284 474.416Z" fill="white" stroke="#58C35C" stroke-miterlimit="10"/>
<path d="M300.517 476.301C319.515 476.301 334.916 460.27 334.916 440.495C334.916 420.72 319.515 404.689 300.517 404.689C281.519 404.689 266.118 420.72 266.118 440.495C266.118 460.27 281.519 476.301 300.517 476.301Z" fill="white" stroke="#58C35C" stroke-miterlimit="10"/>
<path d="M310.293 477.243C329.291 477.243 344.692 461.212 344.692 441.437C344.692 421.662 329.291 405.631 310.293 405.631C291.295 405.631 275.895 421.662 275.895 441.437C275.895 461.212 291.295 477.243 310.293 477.243Z" fill="white" stroke="#58C35C" stroke-miterlimit="10"/>
<path d="M319.889 477.432C338.887 477.432 354.288 461.401 354.288 441.626C354.288 421.851 338.887 405.82 319.889 405.82C300.891 405.82 285.49 421.851 285.49 441.626C285.49 461.401 300.891 477.432 319.889 477.432Z" fill="white" stroke="#58C35C" stroke-miterlimit="10"/>
<path d="M329.122 476.678C348.12 476.678 363.521 460.647 363.521 440.872C363.521 421.097 348.12 405.066 329.122 405.066C310.124 405.066 294.724 421.097 294.724 440.872C294.724 460.647 310.124 476.678 329.122 476.678Z" fill="white" stroke="#58C35C" stroke-miterlimit="10"/>
<path d="M338.355 475.359C357.353 475.359 372.754 459.328 372.754 439.553C372.754 419.778 357.353 403.747 338.355 403.747C319.358 403.747 303.957 419.778 303.957 439.553C303.957 459.328 319.358 475.359 338.355 475.359Z" fill="white" stroke="#58C35C" stroke-miterlimit="10"/>
<path d="M347.227 473.097C366.225 473.097 381.626 457.066 381.626 437.291C381.626 417.516 366.225 401.485 347.227 401.485C328.229 401.485 312.828 417.516 312.828 437.291C312.828 457.066 328.229 473.097 347.227 473.097Z" fill="white" stroke="#58C35C" stroke-miterlimit="10"/>
<path d="M355.736 470.27C374.734 470.27 390.135 454.239 390.135 434.464C390.135 414.689 374.734 398.659 355.736 398.659C336.738 398.659 321.337 414.689 321.337 434.464C321.337 454.239 336.738 470.27 355.736 470.27Z" fill="white" stroke="#58C35C" stroke-miterlimit="10"/>
<path d="M364.064 466.501C383.062 466.501 398.463 450.47 398.463 430.695C398.463 410.92 383.062 394.89 364.064 394.89C345.066 394.89 329.666 410.92 329.666 430.695C329.666 450.47 345.066 466.501 364.064 466.501Z" fill="white" stroke="#58C35C" stroke-miterlimit="10"/>
<path d="M372.03 462.167C391.028 462.167 406.429 446.136 406.429 426.361C406.429 406.586 391.028 390.555 372.03 390.555C353.032 390.555 337.632 406.586 337.632 426.361C337.632 446.136 353.032 462.167 372.03 462.167Z" fill="white" stroke="#58C35C" stroke-miterlimit="10"/>
<path d="M379.453 457.079C398.451 457.079 413.852 441.048 413.852 421.273C413.852 401.498 398.451 385.467 379.453 385.467C360.455 385.467 345.054 401.498 345.054 421.273C345.054 441.048 360.455 457.079 379.453 457.079Z" fill="white" stroke="#58C35C" stroke-miterlimit="10"/>
<path d="M386.514 451.425C405.512 451.425 420.912 435.394 420.912 415.619C420.912 395.844 405.512 379.813 386.514 379.813C367.516 379.813 352.115 395.844 352.115 415.619C352.115 435.394 367.516 451.425 386.514 451.425Z" fill="white" stroke="#58C35C" stroke-miterlimit="10"/>
<path d="M393.212 445.206C412.21 445.206 427.611 429.175 427.611 409.4C427.611 389.625 412.21 373.595 393.212 373.595C374.215 373.595 358.814 389.625 358.814 409.4C358.814 429.175 374.215 445.206 393.212 445.206Z" fill="white" stroke="#58C35C" stroke-miterlimit="10"/>
<path d="M399.911 439.176C418.909 439.176 434.31 423.145 434.31 403.37C434.31 383.595 418.909 367.564 399.911 367.564C380.913 367.564 365.512 383.595 365.512 403.37C365.512 423.145 380.913 439.176 399.911 439.176Z" fill="white" stroke="#58C35C" stroke-miterlimit="10"/>
<path d="M407.515 442.756C426.513 442.756 441.914 426.726 441.914 406.951C441.914 387.176 426.513 371.145 407.515 371.145C388.517 371.145 373.116 387.176 373.116 406.951C373.116 426.726 388.517 442.756 407.515 442.756Z" fill="white" stroke="#58C35C" stroke-miterlimit="10"/>
<path d="M405.705 451.237C424.702 451.237 440.103 435.206 440.103 415.431C440.103 395.656 424.702 379.625 405.705 379.625C386.707 379.625 371.306 395.656 371.306 415.431C371.306 435.206 386.707 451.237 405.705 451.237Z" fill="white" stroke="#58C35C" stroke-miterlimit="10"/>
<path d="M399.368 457.833C418.366 457.833 433.767 441.802 433.767 422.027C433.767 402.252 418.366 386.221 399.368 386.221C380.37 386.221 364.969 402.252 364.969 422.027C364.969 441.802 380.37 457.833 399.368 457.833Z" fill="white" stroke="#58C35C" stroke-miterlimit="10"/>
<path d="M392.669 463.863C411.667 463.863 427.068 447.832 427.068 428.057C427.068 408.282 411.667 392.251 392.669 392.251C373.671 392.251 358.271 408.282 358.271 428.057C358.271 447.832 373.671 463.863 392.669 463.863Z" fill="white" stroke="#58C35C" stroke-miterlimit="10"/>
<path d="M385.427 469.517C404.425 469.517 419.826 453.486 419.826 433.711C419.826 413.936 404.425 397.905 385.427 397.905C366.429 397.905 351.029 413.936 351.029 433.711C351.029 453.486 366.429 469.517 385.427 469.517Z" fill="white" stroke="#58C35C" stroke-miterlimit="10"/>
<path d="M377.823 474.416C396.821 474.416 412.222 458.385 412.222 438.61C412.222 418.835 396.821 402.805 377.823 402.805C358.826 402.805 343.425 418.835 343.425 438.61C343.425 458.385 358.826 474.416 377.823 474.416Z" fill="white" stroke="#58C35C" stroke-miterlimit="10"/>
<path d="M370.039 478.751C389.036 478.751 404.437 462.72 404.437 442.945C404.437 423.17 389.036 407.139 370.039 407.139C351.041 407.139 335.64 423.17 335.64 442.945C335.64 462.72 351.041 478.751 370.039 478.751Z" fill="white" stroke="#58C35C" stroke-miterlimit="10"/>
<path d="M361.71 482.331C380.708 482.331 396.109 466.3 396.109 446.525C396.109 426.75 380.708 410.72 361.71 410.72C342.713 410.72 327.312 426.75 327.312 446.525C327.312 466.3 342.713 482.331 361.71 482.331Z" fill="white" stroke="#58C35C" stroke-miterlimit="10"/>
<path d="M353.201 485.535C372.199 485.535 387.6 469.504 387.6 449.729C387.6 429.954 372.199 413.923 353.201 413.923C334.204 413.923 318.803 429.954 318.803 449.729C318.803 469.504 334.204 485.535 353.201 485.535Z" fill="white" stroke="#58C35C" stroke-miterlimit="10"/>
<path d="M344.33 487.985C363.328 487.985 378.729 471.954 378.729 452.179C378.729 432.404 363.328 416.373 344.33 416.373C325.332 416.373 309.931 432.404 309.931 452.179C309.931 471.954 325.332 487.985 344.33 487.985Z" fill="white" stroke="#58C35C" stroke-miterlimit="10"/>
<path d="M335.278 489.681C354.276 489.681 369.677 473.65 369.677 453.875C369.677 434.1 354.276 418.069 335.278 418.069C316.28 418.069 300.879 434.1 300.879 453.875C300.879 473.65 316.28 489.681 335.278 489.681Z" fill="white" stroke="#58C35C" stroke-miterlimit="10"/>
<path d="M326.225 490.623C345.223 490.623 360.624 474.592 360.624 454.817C360.624 435.042 345.223 419.011 326.225 419.011C307.227 419.011 291.827 435.042 291.827 454.817C291.827 474.592 307.227 490.623 326.225 490.623Z" fill="white" stroke="#58C35C" stroke-miterlimit="10"/>
<path d="M316.811 491C335.809 491 351.21 474.969 351.21 455.194C351.21 435.419 335.809 419.388 316.811 419.388C297.813 419.388 282.413 435.419 282.413 455.194C282.413 474.969 297.813 491 316.811 491Z" fill="white" stroke="#58C35C" stroke-miterlimit="10"/>
<defs>
<filter id="filter0_i" x="-33.355" y="0" width="643.355" height="707.157" filterUnits="userSpaceOnUse" color-interpolation-filters="sRGB">
<feFlood flood-opacity="0" result="BackgroundImageFix"/>
<feBlend mode="normal" in="SourceGraphic" in2="BackgroundImageFix" result="shape"/>
<feColorMatrix in="SourceAlpha" type="matrix" values="0 0 0 0 0 0 0 0 0 0 0 0 0 0 0 0 0 0 127 0" result="hardAlpha"/>
<feOffset dx="-33.355"/>
<feGaussianBlur stdDeviation="33.355"/>
<feComposite in2="hardAlpha" operator="arithmetic" k2="-1" k3="1"/>
<feColorMatrix type="matrix" values="0 0 0 0 0.345098 0 0 0 0 0.764706 0 0 0 0 0.360784 0 0 0 0.3 0"/>
<feBlend mode="normal" in2="shape" result="effect1_innerShadow"/>
</filter>
<linearGradient id="paint0_linear" x1="610" y1="-74.8116" x2="-71.5878" y2="671.013" gradientUnits="userSpaceOnUse">
<stop stop-color="#58C35C"/>
<stop offset="0.527788" stop-color="#58C370"/>
<stop offset="1" stop-color="#58C390"/>
</linearGradient>
<radialGradient id="paint1_radial" cx="0" cy="0" r="1" gradientUnits="userSpaceOnUse" gradientTransform="translate(165.424 -154.783) rotate(95.2815) scale(870.478 1246.96)">
<stop stop-color="#5CF086"/>
<stop offset="1" stop-color="#58C35C" stop-opacity="0"/>
</radialGradient>
<radialGradient id="paint2_radial" cx="0" cy="0" r="1" gradientUnits="userSpaceOnUse" gradientTransform="translate(162.839 41.2754) rotate(65.6913) scale(345.342 901.37)">
<stop stop-color="#58C35C"/>
<stop offset="1" stop-color="#8F41EE" stop-opacity="0"/>
<stop offset="1" stop-color="#58C35C" stop-opacity="0"/>
</radialGradient>
<radialGradient id="paint3_radial" cx="0" cy="0" r="1" gradientUnits="userSpaceOnUse" gradientTransform="translate(899.492 544.319) rotate(140.041) scale(546.281 780.782)">
<stop stop-color="#58C35C"/>
<stop offset="1" stop-color="#58C35C" stop-opacity="0"/>
</radialGradient>
<linearGradient id="paint4_linear" x1="610" y1="-74.8116" x2="-71.5878" y2="671.013" gradientUnits="userSpaceOnUse">
<stop stop-color="#58C35C"/>
<stop offset="0.527788" stop-color="#58C370"/>
<stop offset="1" stop-color="#58C390"/>
</linearGradient>
<radialGradient id="paint5_radial" cx="0" cy="0" r="1" gradientUnits="userSpaceOnUse" gradientTransform="translate(165.424 -154.783) rotate(95.2815) scale(870.478 1246.96)">
<stop stop-color="#5CF086"/>
<stop offset="1" stop-color="#58C35C" stop-opacity="0"/>
</radialGradient>
<radialGradient id="paint6_radial" cx="0" cy="0" r="1" gradientUnits="userSpaceOnUse" gradientTransform="translate(162.839 41.2754) rotate(65.6913) scale(345.342 901.37)">
<stop stop-color="#58C35C"/>
<stop offset="1" stop-color="#8F41EE" stop-opacity="0"/>
<stop offset="1" stop-color="#58C35C" stop-opacity="0"/>
</radialGradient>
<radialGradient id="paint7_radial" cx="0" cy="0" r="1" gradientUnits="userSpaceOnUse" gradientTransform="translate(899.492 544.319) rotate(140.041) scale(546.281 780.782)">
<stop stop-color="#58C35C"/>
<stop offset="1" stop-color="#58C35C" stop-opacity="0"/>
</radialGradient>
</defs>
</svg>
